<?xml version="1.0" standalone="no"?>
<!DOCTYPE svg PUBLIC "-//W3C//DTD SVG 20010904//EN"
 "http://www.w3.org/TR/2001/REC-SVG-20010904/DTD/svg10.dtd">
<svg version="1.0" xmlns="http://www.w3.org/2000/svg"
 width="1600.000000pt" height="1190.000000pt" viewBox="0 0 1600.000000 1190.000000"
 preserveAspectRatio="xMidYMid meet">

<g transform="translate(0.000000,1190.000000) scale(0.100000,-0.100000)"
fill="#000000" stroke="none">
<path d="M8415 9026 c-97 -19 -221 -69 -289 -116 -56 -39 -58 -40 -124 -34
-209 20 -402 -76 -507 -251 -79 -132 -94 -260 -48 -406 23 -72 27 -103 27
-209 1 -112 -1 -130 -22 -167 -28 -53 -49 -67 -132 -88 -110 -28 -189 -71
-260 -144 -111 -112 -162 -248 -162 -426 0 -112 13 -159 61 -226 107 -146 67
-377 -81 -472 -92 -58 -133 -168 -126 -332 7 -190 107 -306 287 -334 35 -6 65
-12 67 -14 2 -2 -33 -114 -77 -251 -94 -288 -93 -285 -367 -649 -94 -125 -169
-227 -167 -227 4 0 188 233 269 342 61 82 80 99 49 47 -66 -113 -358 -473
-375 -463 -7 4 -8 2 -4 -4 4 -7 -20 -41 -58 -81 -37 -39 -66 -73 -66 -76 0 -3
24 -32 54 -64 43 -47 96 -119 132 -179 5 -8 69 32 160 101 155 116 314 257
505 447 l175 175 144 240 c249 416 390 635 410 635 3 0 12 -29 19 -65 25 -127
95 -235 193 -299 47 -31 507 -47 743 -26 217 19 288 53 343 160 25 51 35 88
45 169 l12 103 107 -203 c124 -239 226 -423 275 -497 32 -47 594 -607 667
-663 l29 -23 98 105 c54 57 98 110 99 116 0 7 -25 48 -56 90 -79 110 -142 219
-243 422 -112 224 -216 454 -271 601 -24 63 -56 144 -72 179 -16 35 -27 66
-25 68 2 2 31 10 63 19 81 21 131 52 198 124 67 73 134 205 168 330 29 109 31
273 4 370 -52 191 -212 384 -350 421 -68 18 -152 66 -184 105 -49 60 -57 114
-37 250 31 205 6 336 -83 435 -56 62 -114 100 -241 158 -126 57 -225 122 -255
168 -13 21 -41 87 -60 147 -61 183 -136 299 -246 380 -108 80 -266 111 -415
82z m-127 -807 c64 -58 164 -110 261 -135 51 -13 94 -15 200 -11 75 3 151 9
170 13 l34 7 -6 -184 c-4 -156 -9 -200 -32 -289 -36 -143 -82 -234 -150 -303
-51 -53 -55 -60 -55 -105 0 -95 45 -204 129 -316 l51 -67 -57 -36 c-237 -151
-474 -169 -614 -44 l-43 38 32 44 c18 25 44 77 57 115 21 62 55 229 55 276 0
11 -25 30 -68 53 -205 107 -306 326 -327 707 l-6 117 43 27 c70 43 128 105
159 169 16 33 29 68 29 79 0 11 16 -6 40 -42 23 -34 67 -84 98 -113z m1007
-2395 c40 -68 197 -386 193 -390 -2 -2 -55 95 -117 216 -106 207 -137 279 -76
174z m-134 -252 c-11 -23 -26 -44 -32 -48 -14 -8 -11 -1 21 53 31 52 38 49 11
-5z m-1801 -572 c-6 -11 -13 -20 -16 -20 -2 0 0 9 6 20 6 11 13 20 16 20 2 0
0 -9 -6 -20z"/>
<path d="M8158 7959 c-21 -11 -38 -24 -38 -29 0 -14 5 -13 47 10 48 25 79 25
127 -1 21 -11 40 -18 43 -15 17 17 -60 56 -109 56 -18 -1 -50 -10 -70 -21z"/>
<path d="M8584 7966 c-31 -14 -50 -33 -42 -42 2 -2 22 5 43 16 47 24 64 25
110 6 21 -9 37 -11 41 -5 7 12 -57 39 -93 39 -15 -1 -42 -7 -59 -14z"/>
<path d="M8446 7780 c-3 -8 -17 -48 -30 -88 l-25 -73 25 -9 c14 -6 30 -10 35
-10 11 0 13 20 2 20 -5 0 -14 4 -22 9 -11 7 -10 20 9 75 12 36 20 72 17 79 -3
9 -6 8 -11 -3z"/>
<path d="M8296 7502 c-9 -15 86 -54 145 -59 47 -5 64 -2 98 18 22 12 41 29 41
37 0 12 -4 12 -22 -2 -67 -48 -146 -45 -250 12 -3 1 -9 -1 -12 -6z"/>
<path d="M9270 4668 c-215 -201 -546 -280 -899 -213 -95 18 -259 74 -343 116
l-58 29 -243 -134 c-578 -319 -943 -507 -1132 -581 -152 -59 -251 -112 -343
-182 -99 -76 -159 -145 -201 -232 -30 -64 -36 -88 -39 -161 -7 -140 40 -260
120 -307 143 -84 467 -183 734 -223 197 -30 532 -38 717 -16 258 30 469 84
684 176 112 48 307 152 317 169 6 8 -198 173 -379 306 -206 151 -181 126 51
-52 194 -148 298 -235 298 -248 -1 -17 -203 -122 -337 -175 -326 -129 -713
-187 -1074 -162 -276 19 -524 68 -750 146 -244 85 -306 131 -338 251 -73 269
131 529 533 676 170 62 703 336 1240 636 l134 75 82 -36 c216 -92 384 -129
591 -129 130 0 163 4 249 26 159 42 279 107 391 209 29 26 56 48 60 48 4 0
199 -109 434 -242 457 -261 503 -291 812 -549 351 -293 404 -342 433 -402 101
-205 11 -429 -218 -541 -97 -47 -180 -73 -316 -98 -103 -19 -152 -22 -475 -22
-288 -1 -389 3 -505 17 -278 35 -519 92 -699 166 -41 17 -76 29 -78 27 -6 -5
182 -78 286 -110 114 -36 345 -81 521 -103 206 -25 801 -25 940 -1 307 55 490
159 571 325 32 64 34 74 34 173 0 98 -2 110 -32 170 -27 56 -49 80 -160 176
-560 484 -579 498 -1100 797 -247 141 -452 257 -454 257 -2 -1 -29 -24 -59
-52z"/>
<path d="M6459 4643 c-13 -16 -12 -17 4 -4 9 7 17 15 17 17 0 8 -8 3 -21 -13z"/>
<path d="M8145 3901 c12 -21 190 -133 271 -171 123 -59 276 -108 399 -127 97
-15 140 -15 459 -3 531 20 946 5 1062 -36 11 -4 16 -4 12 1 -4 4 -42 16 -85
27 -129 33 -620 48 -1188 38 -217 -4 -261 -3 -330 13 -188 43 -385 124 -538
224 -38 24 -66 39 -62 34z"/>
<path d="M8976 3849 c-141 -9 -414 -43 -516 -63 -58 -12 -61 -14 -25 -15 107
-2 737 68 729 81 -3 4 -17 7 -32 7 -15 -1 -85 -6 -156 -10z"/>
<path d="M7355 3604 c-241 -37 -490 -136 -650 -257 -60 -46 -65 -53 -15 -23
93 57 289 147 390 180 191 62 398 95 612 97 90 1 104 3 68 10 -71 12 -306 8
-405 -7z"/>
<path d="M7960 3586 c0 -2 8 -10 18 -17 15 -13 16 -12 3 4 -13 16 -21 21 -21
13z"/>
</g>
</svg>
