<svg xmlns="http://www.w3.org/2000/svg" viewBox="0 0 292 176.22"><defs><style>.cls-1{fill:#fcee21;}.cls-2{fill:#58595b;}</style></defs><g id="Layer_7" data-name="Layer 7"><circle class="cls-1" cx="58.53" cy="65.49" r="5.12"/><rect class="cls-2" x="57.27" y="72.73" width="2.52" height="27.51"/><path class="cls-2" d="M69,78.87v21.37H66.46V72.73H69V74.5a11,11,0,0,1,8-3.42A10.59,10.59,0,0,1,88.06,81.84v18.4H85.54V82.06a8.07,8.07,0,0,0-2.54-6,8.55,8.55,0,0,0-12,0A9.35,9.35,0,0,0,69,78.87Z"/><path class="cls-2" d="M98.09,72.73V61h2.52V72.73h5.6v2.52h-5.6v25H98.09v-25h-5.6V72.73Z"/><path class="cls-2" d="M115.88,95.09a12.1,12.1,0,0,0,8.46,3.25,12.26,12.26,0,0,0,9-3.73c.32-.32.62-.64.9-1l2.66,1a16.47,16.47,0,0,1-1.65,1.94,15.39,15.39,0,1,1-21.77-21.77,15.44,15.44,0,0,1,20.42-1.23q.68.56,1.35,1.23c.17.17.32.34.47.5l-1.9,1.91ZM132,75.45a12.71,12.71,0,0,0-17.79,17.79Z"/><path class="cls-1" d="M147.14,71v44.85h-5.82V71Z"/><path class="cls-1" d="M159.08,60.88v44.85h-5.83V60.88Z"/><path class="cls-2" d="M170.43,95.09a12.1,12.1,0,0,0,8.46,3.25,12.26,12.26,0,0,0,9-3.73c.32-.32.62-.64.9-1l2.66,1a17.48,17.48,0,0,1-1.65,1.94A15.39,15.39,0,1,1,168,74.75a15.44,15.44,0,0,1,20.42-1.23q.67.56,1.35,1.23l.47.5-1.9,1.91Zm16.08-19.64a12.71,12.71,0,0,0-17.79,17.79Z"/><path class="cls-2" d="M219.45,93.63l2.66,1a15.57,15.57,0,0,1-1.65,1.94A15.39,15.39,0,0,1,198.7,74.75a15.38,15.38,0,0,1,21.76,0,16.1,16.1,0,0,1,1.65,1.91l-2.66,1c-.28-.34-.58-.68-.89-1a12.71,12.71,0,1,0-18,18,12.67,12.67,0,0,0,18,0C218.87,94.29,219.17,94,219.45,93.63Z"/><path class="cls-2" d="M230.46,72.73V61H233V72.73h5.6v2.52H233v25h-2.53v-25h-5.6V72.73Z"/></g></svg>