<?xml version="1.0" standalone="no"?>
<!DOCTYPE svg PUBLIC "-//W3C//DTD SVG 20010904//EN"
 "http://www.w3.org/TR/2001/REC-SVG-20010904/DTD/svg10.dtd">
<svg version="1.0" xmlns="http://www.w3.org/2000/svg"
 width="1600.000000pt" height="1195.000000pt" viewBox="0 0 1600.000000 1195.000000"
 preserveAspectRatio="xMidYMid meet">

<g transform="translate(0.000000,1195.000000) scale(0.100000,-0.100000)"
fill="#000000" stroke="none">
<path d="M4593 11057 c-164 -55 -242 -137 -280 -293 -9 -38 -25 -81 -36 -96
-14 -19 -18 -34 -13 -53 6 -25 8 -26 20 -10 12 17 19 17 71 7 79 -16 197 -15
273 3 65 16 167 63 242 114 45 31 62 38 58 24 -1 -5 1 -18 6 -30 9 -27 42 -37
100 -31 l44 5 4 -101 c4 -97 21 -161 43 -161 18 0 44 69 59 160 9 50 21 115
27 145 19 94 -5 180 -50 180 -9 0 -25 17 -36 37 -43 80 -130 112 -325 119
-123 4 -141 3 -207 -19z"/>
<path d="M9265 10989 c-82 -18 -162 -53 -241 -105 -69 -45 -85 -62 -113 -113
-39 -73 -71 -195 -71 -270 0 -125 47 -322 95 -394 12 -18 27 -26 63 -30 26 -3
66 -12 89 -20 l42 -14 7 43 c6 41 4 46 -34 90 -48 54 -77 111 -94 182 -12 51
-14 52 -49 52 -51 0 -81 35 -87 103 -3 42 0 57 16 77 20 24 24 25 149 25 75 0
145 5 170 13 57 17 121 67 162 127 19 28 31 41 27 30 -4 -11 -10 -54 -13 -95
-7 -91 -3 -95 93 -115 54 -11 72 -12 81 -2 6 7 28 50 48 97 36 85 37 82 13
-46 -10 -55 -9 -67 2 -74 20 -12 199 -44 207 -36 3 3 14 28 23 56 20 59 27 51
37 -40 6 -65 -11 -182 -39 -256 -25 -69 -86 -137 -151 -168 -62 -31 -171 -56
-244 -56 -29 0 -53 -4 -53 -8 0 -4 51 -31 114 -61 62 -29 128 -65 145 -79 l31
-27 -21 -106 -21 -107 62 -77 c93 -118 124 -185 123 -267 l0 -67 61 -24 c81
-33 169 -50 209 -42 17 4 49 18 69 31 32 20 41 35 60 96 32 101 31 297 -1 408
-13 41 -26 111 -30 155 -10 99 -59 271 -112 390 -21 50 -39 101 -39 115 0 56
-43 201 -86 288 -76 157 -196 255 -378 311 -74 23 -241 28 -321 10z"/>
<path d="M5141 10973 c-1 -30 19 -40 35 -18 17 22 10 32 -10 16 -11 -10 -15
-8 -19 6 -4 15 -5 14 -6 -4z"/>
<path d="M12622 6674 c-32 -17 -112 -99 -112 -115 0 -5 -22 7 -50 27 -86 61
-147 78 -295 78 -121 1 -134 -1 -187 -26 -31 -14 -78 -46 -103 -69 -46 -42
-105 -131 -105 -157 0 -7 -13 -30 -29 -50 -38 -48 -55 -104 -46 -150 11 -58
15 -58 47 -1 46 85 47 86 110 55 97 -47 180 -58 405 -54 l202 4 6 -28 c14 -60
71 -79 101 -33 26 40 106 32 141 -14 17 -22 16 -96 -2 -131 -14 -27 -67 -54
-96 -48 -8 2 -15 -12 -20 -39 -8 -43 -32 -98 -63 -145 l-18 -28 71 33 c87 40
136 85 170 157 22 46 26 71 28 150 l1 95 55 55 c57 57 87 120 87 183 0 164
-177 313 -298 251z"/>
<path d="M6481 6663 c-84 -17 -275 -163 -315 -241 -8 -16 -31 -39 -51 -51 -58
-34 -67 -70 -59 -225 8 -157 21 -199 61 -194 47 5 65 54 61 170 -3 96 -2 97
27 128 79 84 140 81 350 -14 257 -117 338 -142 369 -111 18 19 21 67 6 96 -10
17 -7 19 24 19 49 0 55 18 18 50 l-31 26 29 11 c39 15 39 42 0 121 -43 84
-112 155 -185 188 -52 24 -74 28 -170 30 -60 1 -121 0 -134 -3z"/>
<path d="M6123 6479 c-4 -21 -9 -27 -16 -20 -15 15 -37 14 -37 -2 0 -16 41
-57 57 -57 13 0 23 33 23 78 0 41 -19 42 -27 1z"/>
<path d="M12885 6200 c-10 -11 -25 -20 -33 -20 -9 0 -13 -3 -9 -6 10 -10 47 7
57 27 14 25 8 24 -15 -1z"/>
<path d="M6394 6011 c-2 -2 -4 -24 -4 -48 0 -64 40 -103 105 -103 71 0 114 22
132 70 9 22 20 40 24 40 5 0 15 -15 22 -32 8 -18 24 -42 36 -52 27 -24 110
-33 152 -16 38 16 63 68 54 111 l-7 29 -116 0 c-64 0 -124 -4 -132 -10 -8 -5
-19 -5 -25 0 -10 9 -233 19 -241 11z"/>
<path d="M14475 3184 c-21 -8 -48 -22 -60 -32 -11 -10 -32 -26 -46 -34 -23
-15 -27 -27 -39 -110 -7 -51 -14 -97 -16 -103 -3 -6 33 -48 79 -93 51 -51 88
-97 96 -120 63 -176 75 -203 93 -213 15 -8 25 -6 45 6 25 17 25 19 19 91 -4
41 -18 136 -31 210 -16 96 -21 144 -14 161 19 50 10 117 -23 184 -18 35 -40
65 -48 66 -8 1 -33 -5 -55 -13z"/>
<path d="M12175 1394 c-27 -7 -76 -16 -109 -20 -55 -6 -59 -9 -73 -43 -8 -20
-22 -73 -31 -120 -14 -80 -18 -88 -94 -187 -77 -102 -89 -129 -66 -152 35 -35
106 9 273 170 51 48 101 88 110 88 51 0 133 74 171 154 17 35 17 36 -7 62 -23
26 -93 64 -114 63 -5 0 -32 -7 -60 -15z"/>
</g>
</svg>
