<?xml version="1.0" standalone="no"?>
<!DOCTYPE svg PUBLIC "-//W3C//DTD SVG 20010904//EN"
 "http://www.w3.org/TR/2001/REC-SVG-20010904/DTD/svg10.dtd">
<svg version="1.0" xmlns="http://www.w3.org/2000/svg"
 width="1600.000000pt" height="1200.000000pt" viewBox="0 0 1600.000000 1200.000000"
 preserveAspectRatio="xMidYMid meet">

<g transform="translate(0.000000,1200.000000) scale(0.100000,-0.100000)"
fill="#000000" stroke="none">
<path d="M11790 8603 c-25 -1 -79 -8 -120 -14 -217 -31 -275 -86 -220 -206
l19 -43 -34 -56 c-19 -32 -38 -73 -41 -92 -8 -41 1 -138 20 -207 l13 -50 19
54 c10 30 37 97 59 150 l40 95 60 19 c209 63 384 93 448 76 53 -14 66 -25 88
-74 14 -31 19 -65 19 -148 0 -124 10 -153 67 -188 37 -23 37 -23 13 -30 -14
-4 -49 -7 -77 -8 -49 -1 -54 1 -68 29 -15 29 -17 30 -89 30 -87 0 -211 -22
-256 -45 -29 -15 -32 -20 -28 -56 l4 -39 -36 6 c-19 4 -36 8 -38 9 -2 2 -17
-1 -34 -6 -26 -7 -34 -5 -44 10 -8 10 -26 22 -40 25 -36 9 -251 -33 -271 -52
-34 -35 30 -218 87 -247 51 -26 170 -15 170 15 0 6 -10 6 -26 0 -48 -19 -119
-12 -146 13 -31 29 -70 130 -66 171 3 34 12 38 148 60 74 13 88 13 108 0 12
-8 22 -23 22 -33 0 -11 3 -27 6 -36 5 -13 10 -11 25 14 23 37 46 45 95 29 34
-11 43 -21 70 -78 44 -92 50 -95 158 -94 96 1 167 16 185 37 6 8 14 52 17 99
l7 85 89 7 c49 4 92 5 97 2 7 -5 13 -59 15 -138 1 -29 5 -38 18 -38 10 0 26
16 37 38 35 68 137 143 218 160 l38 8 -1 130 c-2 99 -8 156 -28 243 -40 178
-36 174 -205 248 -79 35 -178 72 -220 83 -71 19 -265 42 -321 38 -14 -1 -45
-3 -70 -5z m261 -715 c14 -27 24 -165 15 -202 -9 -38 -58 -58 -156 -64 -85 -4
-87 -4 -108 23 -45 57 -71 218 -38 231 32 12 164 32 218 33 50 1 59 -2 69 -21z"/>
<path d="M6157 8495 c-256 -53 -473 -237 -574 -485 -52 -126 -111 -430 -183
-935 -39 -274 -115 -609 -184 -812 -19 -57 -32 -103 -29 -103 2 0 24 13 48 30
67 46 123 117 170 215 80 166 97 312 70 590 -42 433 4 613 210 821 181 182
322 234 660 240 l180 3 60 64 c33 35 73 83 89 106 l29 42 -29 32 c-69 75 -69
81 -4 35 36 -25 90 -58 120 -74 30 -16 90 -63 132 -105 66 -64 74 -70 56 -37
-36 63 -115 155 -181 208 -71 59 -215 133 -302 156 -83 22 -253 27 -338 9z"/>
<path d="M2813 8269 c-72 -9 -135 -34 -180 -73 -36 -31 -42 -46 -17 -46 17 0
205 62 298 98 43 17 46 20 25 25 -28 8 -42 7 -126 -4z"/>
<path d="M4449 8105 c-115 -27 -119 -29 -119 -62 0 -35 49 -237 68 -283 25
-59 25 -16 -1 72 -35 115 -46 167 -38 172 14 9 223 47 228 42 9 -9 32 -162 39
-261 6 -83 4 -92 -16 -118 -27 -34 -20 -47 9 -16 18 19 21 35 21 102 0 90 -37
346 -52 365 -13 15 -23 15 -139 -13z"/>
<path d="M4079 8026 c-147 -29 -147 -29 -156 -67 -7 -23 -18 -35 -43 -45 -65
-24 -803 -264 -805 -262 -2 2 -30 63 -64 137 -71 154 -76 134 54 189 157 65
156 63 5 57 -231 -8 -377 -41 -753 -172 -187 -65 -239 -65 -102 1 50 24 122
65 160 90 65 43 68 46 35 41 -89 -13 -217 -25 -352 -31 l-148 -7 0 -31 c1 -72
32 -243 60 -327 61 -182 249 -499 384 -645 75 -82 176 -162 295 -233 91 -55
101 -59 101 -36 0 25 70 83 137 112 35 15 62 30 61 33 -53 122 -51 120 -89
120 -29 0 -37 -5 -47 -27 l-11 -28 5 30 c4 26 0 32 -25 43 -42 18 -56 45 -102
189 -63 199 -64 314 -3 342 36 16 157 13 239 -5 39 -9 95 -18 125 -21 l55 -5
12 43 c8 30 8 49 1 62 -5 10 -8 20 -6 22 2 2 127 42 278 90 438 138 554 174
556 172 2 -1 4 -15 6 -31 l3 -29 -410 -103 c-225 -57 -414 -103 -420 -103 -5
-1 -2 -8 7 -17 15 -15 45 -10 385 60 202 43 377 79 388 82 17 4 24 -4 39 -48
30 -86 86 -194 112 -219 28 -26 29 -25 9 30 -8 22 -12 41 -11 41 2 0 18 -25
35 -54 33 -59 97 -106 143 -106 68 0 138 94 138 186 0 106 -75 417 -116 482
-17 26 -17 26 -165 -2z m197 -143 c38 -125 64 -258 64 -332 0 -50 -5 -73 -25
-106 -63 -108 -173 -68 -253 92 -56 111 -126 352 -108 371 9 9 279 70 288 65
4 -2 19 -43 34 -90z"/>
<path d="M6153 8029 c-105 -13 -184 -37 -273 -81 -70 -35 -103 -60 -186 -143
-89 -88 -107 -111 -147 -195 -25 -52 -51 -120 -58 -150 -18 -73 -18 -310 0
-476 28 -258 0 -452 -87 -619 -40 -77 -147 -192 -198 -213 -27 -11 -34 -24
-62 -110 -84 -257 -98 -399 -55 -566 17 -70 42 -122 89 -189 24 -33 34 -58 34
-85 0 -20 9 -98 20 -172 11 -74 29 -196 40 -272 17 -123 23 -142 55 -193 l37
-57 -26 -27 c-29 -30 -32 -41 -13 -41 8 0 28 -16 46 -35 28 -32 37 -35 85 -35
50 0 54 2 66 30 7 17 16 32 20 35 4 2 81 -2 171 -10 90 -8 224 -15 297 -15 90
0 143 -4 166 -14 39 -16 76 -60 76 -91 0 -26 9 -31 76 -41 l48 -7 -19 29
c-157 238 -202 376 -270 824 -17 107 -96 503 -115 575 -82 299 -288 469 -547
452 -66 -5 -83 -3 -83 8 0 35 189 36 289 2 173 -61 294 -198 360 -410 27 -89
106 -477 131 -652 56 -380 109 -542 244 -745 l64 -96 64 -11 c51 -9 65 -8 74
3 6 7 55 123 109 257 l97 244 47 -14 c45 -13 211 -29 181 -17 -92 37 -198 99
-217 127 -48 70 -35 117 32 117 31 0 35 3 53 53 38 100 102 314 120 398 18 81
18 85 -1 134 -10 27 -41 136 -68 240 -60 229 -82 280 -140 327 -53 44 -191
130 -197 123 -3 -2 23 -34 56 -70 88 -94 104 -172 46 -226 -23 -21 -35 -24
-102 -23 -131 2 -383 78 -607 183 -79 37 -200 106 -223 127 -2 1 9 22 26 46
127 185 224 523 276 963 l6 50 -26 -32 c-34 -44 -73 -43 -136 0 -99 68 -137
160 -119 283 12 84 34 144 52 144 6 0 39 -17 73 -38 113 -72 84 -82 273 92 92
85 204 190 248 235 l80 81 -145 -1 c-80 -1 -173 -5 -207 -10z"/>
<path d="M6624 7910 c-23 -9 -67 -60 -59 -68 3 -3 23 3 44 13 26 11 50 15 68
11 50 -12 55 -11 67 7 9 15 7 21 -8 33 -22 15 -79 18 -112 4z"/>
<path d="M7027 7809 c-24 -14 -21 -32 8 -46 24 -10 25 -9 25 17 0 34 -9 42
-33 29z"/>
<path d="M6966 7691 c-5 -8 -11 -48 -14 -89 -6 -86 4 -91 44 -23 24 40 25 42
6 32 -20 -11 -21 -8 -24 41 -2 37 -6 49 -12 39z"/>
<path d="M6748 7652 c-6 -20 -13 -22 -80 -23 -162 -2 -150 -35 18 -50 59 -5
109 -8 110 -6 2 2 -7 25 -19 52 -20 41 -25 45 -29 27z"/>
<path d="M5831 7582 c-48 -89 4 -202 93 -202 30 0 31 5 11 40 -21 37 -19 45
20 63 l36 17 -36 31 -35 31 -46 -27 c-25 -15 -47 -25 -50 -23 -2 3 1 19 7 37
10 27 16 32 36 28 15 -3 22 0 20 7 -6 20 -45 18 -56 -2z m109 -59 c19 -17 19
-17 -12 -43 -31 -26 -31 -27 -15 -51 23 -32 21 -37 -7 -32 -32 6 -79 56 -74
79 3 17 61 64 79 64 5 0 18 -8 29 -17z"/>
<path d="M12300 7550 c0 -36 -42 -131 -73 -166 -35 -41 -95 -74 -132 -74 -15
0 -61 15 -103 34 -152 66 -229 70 -418 20 l-99 -25 -39 43 -39 43 7 -40 c4
-21 14 -52 22 -67 18 -35 48 -156 64 -258 16 -98 41 -155 80 -178 87 -54 328
-50 484 6 109 40 182 107 230 213 50 108 69 290 45 412 -11 55 -29 78 -29 37z
m-410 -238 c0 -33 -56 -98 -105 -122 -60 -29 -154 -31 -209 -5 -37 18 -79 70
-73 90 6 19 83 36 197 44 191 13 190 13 190 -7z"/>
<path d="M4528 7414 c-71 -35 -128 -66 -128 -68 0 -6 117 -96 124 -96 3 0 3
14 -1 31 -5 27 0 37 48 87 79 83 104 112 93 111 -5 0 -66 -29 -136 -65z"/>
<path d="M6932 7333 c-72 -4 -82 -25 -16 -33 30 -4 39 -9 39 -24 0 -32 18 -27
70 19 l50 45 -40 -2 c-22 -1 -68 -3 -103 -5z"/>
<path d="M13674 7220 c0 -58 1 -81 3 -52 2 28 2 76 0 105 -2 28 -3 5 -3 -53z"/>
<path d="M6625 7219 c17 -28 109 -145 139 -177 77 -83 126 -92 126 -24 0 48
-6 55 -60 72 -25 8 -72 35 -104 60 -68 53 -83 74 -39 60 15 -5 75 -19 132 -31
98 -20 105 -21 117 -4 27 37 8 45 -105 45 -58 0 -130 3 -160 7 -45 5 -53 4
-46 -8z"/>
<path d="M4430 7125 c-25 -13 -71 -34 -103 -46 -32 -12 -56 -23 -54 -25 5 -5
196 32 250 48 38 12 49 31 21 42 -30 11 -69 5 -114 -19z"/>
<path d="M12513 6870 c5 -185 4 -198 -23 -329 -32 -155 -42 -187 -113 -363
-27 -71 -48 -130 -46 -132 2 -3 170 0 373 5 203 6 372 6 376 2 4 -4 21 -109
38 -233 17 -124 47 -342 67 -485 20 -143 38 -267 41 -275 4 -8 8 -42 9 -76 2
-33 8 -79 15 -102 9 -34 15 -42 34 -42 12 0 50 -14 84 -31 79 -39 146 -114
203 -227 24 -48 52 -93 62 -100 9 -7 17 -20 17 -28 0 -19 21 -18 165 6 237 40
398 94 431 145 56 86 8 399 -81 530 -40 58 -106 199 -160 337 -29 75 -41 95
-54 91 -13 -4 -13 -3 -2 5 11 8 9 21 -12 78 -14 38 -34 93 -44 122 -10 28 -21
52 -26 52 -4 0 -6 4 -3 9 3 4 -8 46 -25 92 -17 46 -49 134 -70 196 -22 61 -46
128 -55 148 l-15 37 -27 -23 -27 -24 23 27 c28 31 27 39 -34 160 -75 153 -155
253 -234 293 -99 50 -307 97 -495 111 l-90 7 -154 105 -154 105 6 -193z m304
-542 c-3 -8 -6 -5 -6 6 -1 11 2 17 5 13 3 -3 4 -12 1 -19z m753 -22 c0 -2 -8
-10 -17 -17 -16 -13 -17 -12 -4 4 13 16 21 21 21 13z m258 -473 c-16 -2 -40
-2 -55 0 -16 2 -3 4 27 4 30 0 43 -2 28 -4z m-561 -130 c-2 -16 -4 -5 -4 22 0
28 2 40 4 28 2 -13 2 -35 0 -50z m300 -29 c-3 -3 -12 -4 -19 -1 -8 3 -5 6 6 6
11 1 17 -2 13 -5z m-80 -20 c-3 -3 -12 -4 -19 -1 -8 3 -5 6 6 6 11 1 17 -2 13
-5z m-107 -38 c-14 -7 -29 -10 -34 -8 -11 6 20 20 44 21 8 0 4 -5 -10 -13z
m523 -43 c-13 -2 -35 -2 -50 0 -16 2 -5 4 22 4 28 0 40 -2 28 -4z m-135 -10
c-10 -2 -26 -2 -35 0 -10 3 -2 5 17 5 19 0 27 -2 18 -5z m-120 -10 c-10 -2
-26 -2 -35 0 -10 3 -2 5 17 5 19 0 27 -2 18 -5z m-332 -20 c-1 -12 9 -20 29
-24 l30 -7 -32 -1 c-34 -1 -48 11 -39 34 7 20 14 19 12 -2z m237 10 c-7 -2
-19 -2 -25 0 -7 3 -2 5 12 5 14 0 19 -2 13 -5z m-66 -9 c-3 -3 -12 -4 -19 -1
-8 3 -5 6 6 6 11 1 17 -2 13 -5z m-7 -554 c-19 -13 -30 -13 -30 0 0 6 10 10
23 10 18 0 19 -2 7 -10z m173 3 c-13 -2 -35 -2 -50 0 -16 2 -5 4 22 4 28 0 40
-2 28 -4z m95 -10 c-10 -2 -26 -2 -35 0 -10 3 -2 5 17 5 19 0 27 -2 18 -5z
m65 -10 c-7 -2 -19 -2 -25 0 -7 3 -2 5 12 5 14 0 19 -2 13 -5z m-276 -9 c-3
-3 -12 -4 -19 -1 -8 3 -5 6 6 6 11 1 17 -2 13 -5z m320 0 c-3 -3 -12 -4 -19
-1 -8 3 -5 6 6 6 11 1 17 -2 13 -5z m-180 -11 c-20 -2 -52 -2 -70 0 -17 2 0 4
38 4 39 0 53 -2 32 -4z m253 -9 l35 -14 -40 5 c-22 3 -58 6 -80 6 l-40 1 35 8
c49 10 51 10 90 -6z m108 -31 c32 -9 51 -18 44 -20 -6 -3 -9 -9 -6 -15 3 -5
-18 3 -47 18 -82 40 -80 44 9 17z m87 -33 c3 -6 -1 -7 -9 -4 -18 7 -21 14 -7
14 6 0 13 -4 16 -10z m-772 -17 c-13 -2 -33 -2 -45 0 -13 2 -3 4 22 4 25 0 35
-2 23 -4z m64 -9 c-3 -3 -12 -4 -19 -1 -8 3 -5 6 6 6 11 1 17 -2 13 -5z m803
-41 l25 -28 -35 30 c-55 47 -56 48 -35 37 11 -6 31 -23 45 -39z m-753 31 c-3
-3 -12 -4 -19 -1 -8 3 -5 6 6 6 11 1 17 -2 13 -5z m693 -29 c19 -19 32 -35 29
-35 -3 0 -20 16 -39 35 -19 19 -32 35 -29 35 3 0 20 -16 39 -35z m-534 -31
c18 -14 18 -14 -6 -3 -31 14 -36 19 -24 19 6 0 19 -7 30 -16z m70 -45 c3 -6
-5 -3 -20 6 -14 10 -26 19 -26 22 0 7 39 -17 46 -28z m512 6 c-3 -3 -9 2 -12
12 -6 14 -5 15 5 6 7 -7 10 -15 7 -18z m-453 -55 c21 -22 37 -40 34 -40 -3 0
-23 18 -44 40 -21 22 -37 40 -34 40 3 0 23 -18 44 -40z m56 -67 c13 -16 12
-17 -3 -4 -17 13 -22 21 -14 21 2 0 10 -8 17 -17z m30 -40 c13 -16 12 -17 -3
-4 -10 7 -18 15 -18 17 0 8 8 3 21 -13z"/>
<path d="M13683 6825 c0 -77 3 -203 6 -280 l8 -140 0 140 c0 77 -3 203 -6 280
l-8 140 0 -140z"/>
<path d="M6305 6828 c119 -144 164 -206 176 -249 7 -21 15 -39 18 -39 3 0 22
40 42 89 l36 89 -41 12 c-55 16 -130 60 -228 132 l-80 60 77 -94z"/>
<path d="M11745 6779 c-33 -27 -118 -79 -190 -116 -71 -36 -211 -108 -310
-161 -141 -74 -201 -100 -274 -118 -160 -40 -161 -41 -201 -294 -10 -63 -16
-117 -15 -119 2 -2 16 6 32 17 31 21 96 24 833 38 173 3 320 7 326 9 8 2 -4
76 -38 237 -27 128 -53 274 -58 323 -5 50 -13 119 -19 155 -6 36 -11 68 -11
73 0 14 -16 5 -75 -44z"/>
<path d="M3185 6444 c21 -19 89 -59 150 -89 129 -63 220 -135 312 -248 34 -42
66 -78 70 -79 5 -1 13 61 19 137 9 112 15 141 29 151 10 7 104 41 209 74 304
97 292 90 131 82 -182 -9 -868 -9 -920 0 l-40 7 40 -35z"/>
<path d="M7682 6200 c-73 -4 -134 -9 -136 -11 -2 -2 -6 -17 -10 -32 -4 -19 -3
-26 4 -22 6 3 10 -3 10 -14 0 -25 1 -25 230 -11 113 7 170 15 210 30 30 11 56
20 57 20 2 0 3 6 3 13 0 16 -111 38 -182 35 -29 0 -113 -4 -186 -8z"/>
<path d="M7300 6169 c-480 -33 -458 -31 -463 -50 -3 -11 -3 -28 0 -39 5 -18
13 -20 118 -17 62 1 117 -1 121 -5 4 -5 2 -19 -4 -33 -13 -28 -8 -30 47 -19
27 6 31 11 31 39 0 30 3 33 38 39 20 3 55 6 78 6 23 0 62 3 87 6 43 6 47 9 53
41 4 19 5 35 3 36 -2 2 -51 -1 -109 -4z"/>
<path d="M10727 5922 c-8 -20 -48 -111 -87 -202 -209 -480 -366 -864 -430
-1049 -45 -132 -48 -177 -16 -226 31 -47 62 -54 305 -70 170 -11 240 -20 266
-32 19 -9 37 -14 40 -11 3 3 8 29 12 57 5 47 8 52 27 47 12 -4 41 -9 65 -13
l44 -6 -49 -43 -49 -43 133 -1 c72 0 132 4 132 8 0 4 -5 13 -12 20 -14 14 -4
18 63 26 35 4 57 0 98 -19 58 -27 82 -30 112 -15 32 18 22 27 -43 40 -95 18
-98 20 -51 38 23 10 44 20 47 23 4 4 -17 16 -46 29 l-53 23 -77 -42 -78 -42 0
31 0 31 -29 -20 c-39 -28 -51 -26 -51 7 0 39 -17 57 -73 77 -26 10 -50 22 -53
26 -2 5 4 26 15 48 19 36 26 41 78 52 32 7 59 13 61 15 2 1 -4 18 -12 39 -14
34 -18 36 -53 33 -36 -3 -39 -6 -47 -45 -8 -37 -12 -42 -50 -52 -22 -6 -50
-12 -61 -13 -18 -3 -20 -10 -17 -86 l3 -82 -68 0 c-87 0 -108 6 -121 35 -13
27 -3 39 41 50 34 9 34 14 0 41 l-28 22 24 26 24 25 -27 11 c-15 5 -36 10 -47
10 -17 0 -19 7 -19 69 0 88 14 129 48 138 29 7 88 -21 103 -49 14 -26 31 -22
66 15 l32 32 -20 70 c-10 38 -19 77 -19 86 0 10 22 26 61 43 33 14 64 26 69
26 4 0 15 -15 24 -34 l16 -35 60 30 c33 16 71 34 85 39 14 5 25 13 25 18 0 4
-19 27 -43 50 l-43 42 -62 -25 c-74 -30 -93 -31 -116 -6 -17 19 -16 22 44 80
34 33 59 64 56 69 -3 5 -18 12 -33 15 -16 3 -36 9 -45 12 -13 5 -18 2 -19 -11
-2 -25 -9 14 -64 321 -26 143 -48 261 -49 262 -1 2 -10 -14 -19 -35z"/>
<path d="M7354 5898 l-29 -33 33 29 c30 28 37 36 29 36 -2 0 -16 -15 -33 -32z"/>
<path d="M7336 4989 c-3 -13 -10 -62 -16 -108 -9 -77 -9 -85 9 -97 10 -7 24
-26 30 -43 16 -36 3 -64 -38 -86 -31 -16 -31 -14 -50 -175 -6 -47 -17 -141
-26 -208 -8 -68 -15 -136 -15 -150 l1 -27 23 29 c33 40 159 297 185 375 41
125 45 180 22 266 -21 74 -60 160 -100 219 l-20 30 -5 -25z"/>
<path d="M8600 4110 c0 -5 43 -57 95 -116 52 -59 98 -116 101 -128 3 -12 -5
-58 -17 -101 -31 -113 -30 -245 2 -245 7 0 9 9 5 23 -19 62 -17 108 9 210 17
66 24 115 19 129 -8 25 -191 238 -205 238 -5 0 -9 -4 -9 -10z"/>
<path d="M8340 3906 c0 -15 170 -106 197 -106 12 0 14 -7 9 -27 -14 -65 -17
-162 -7 -218 14 -77 70 -190 115 -234 48 -46 57 -33 14 18 -101 118 -141 279
-104 420 12 47 12 53 -3 58 -73 27 -123 49 -164 74 -54 33 -57 34 -57 15z"/>
<path d="M12600 3892 c-18 -14 -21 -25 -16 -45 8 -33 14 -34 176 -47 464 -37
864 -71 867 -73 3 -4 -290 -21 -779 -44 l-368 -18 -6 -33 c-4 -19 -1 -48 8
-70 13 -34 17 -37 49 -35 18 2 165 12 324 23 160 11 349 24 420 30 72 5 204
15 295 21 177 12 190 17 190 69 0 14 -6 32 -12 39 -11 11 -2 12 52 7 36 -3
119 -9 186 -12 119 -7 121 -7 137 17 22 31 22 75 0 84 -17 6 -198 21 -553 45
-85 6 -218 15 -295 20 -674 47 -645 46 -675 22z"/>
<path d="M7764 3579 c-7 -12 7 -17 71 -24 205 -23 505 -87 531 -112 25 -25
-12 -115 -54 -132 -15 -6 -103 -15 -197 -19 -183 -8 -221 -22 -95 -35 162 -16
335 -48 346 -62 14 -19 24 -19 24 -1 0 26 -32 40 -124 56 l-91 16 65 7 c74 8
105 27 132 79 26 50 26 97 0 118 -43 36 -593 133 -608 109z"/>
<path d="M6043 3398 c-94 -4 -206 -12 -248 -17 -42 -6 -81 -11 -86 -11 -45 0
79 -67 171 -93 87 -24 191 -37 302 -37 185 0 462 31 591 67 77 21 -141 78
-340 89 -181 9 -212 9 -390 2z"/>
<path d="M5676 3308 c2 -18 8 -91 14 -163 12 -164 68 -772 75 -805 2 -14 7
-72 10 -130 3 -58 11 -145 17 -195 5 -49 15 -145 21 -213 9 -95 16 -126 28
-132 28 -16 314 -70 426 -81 159 -15 371 12 425 53 13 11 18 47 27 198 6 102
11 197 11 212 l0 27 -39 -14 c-117 -41 -214 -24 -279 50 -59 68 -77 134 -77
290 0 122 2 134 29 193 35 75 86 122 157 145 88 29 168 20 215 -24 l22 -21 6
104 c12 184 24 473 20 477 -2 2 -41 -3 -86 -12 -412 -79 -756 -66 -951 36 -34
17 -65 33 -69 35 -4 2 -5 -12 -2 -30z"/>
<path d="M7798 3270 c-3 -8 -9 -125 -12 -260 -3 -135 -13 -290 -21 -345 -16
-114 -18 -131 -8 -122 10 11 32 138 33 190 l0 47 58 0 c32 0 118 -5 191 -11
124 -10 153 -8 138 7 -6 7 -117 18 -281 29 l-98 7 7 107 c4 58 9 108 10 111 2
3 84 0 182 -6 98 -7 202 -14 232 -16 33 -2 56 1 58 8 3 10 -74 18 -384 40
l-92 7 -3 111 c-2 61 -6 104 -10 96z"/>
<path d="M8356 3116 c-3 -14 -18 -38 -32 -55 -14 -17 -21 -31 -16 -31 15 0 49
51 57 83 4 15 5 27 2 27 -3 0 -8 -11 -11 -24z"/>
<path d="M6575 2691 c-140 -36 -208 -182 -170 -365 37 -179 121 -258 236 -222
59 18 99 37 99 48 0 5 -18 -1 -40 -12 -133 -68 -232 -11 -276 160 -22 86 -16
209 14 266 71 138 245 153 298 25 8 -18 14 -37 14 -41 0 -4 -22 -5 -49 -2 -63
6 -114 -12 -146 -49 -33 -40 -32 -74 4 -110 72 -71 179 -5 206 128 8 41 -32
134 -67 156 -30 20 -85 28 -123 18z m170 -172 c11 -17 -24 -97 -52 -119 -34
-27 -96 -27 -123 0 -37 37 -16 102 40 123 27 10 129 7 135 -4z"/>
</g>
</svg>
