<svg id="Layer_1" data-name="Layer 1" xmlns="http://www.w3.org/2000/svg" viewBox="0 0 292 176.22"><defs><style>.cls-1{fill:#4c7abd;}.cls-2{fill:#fcee21;}</style></defs><path class="cls-1" d="M87.11,79.32a20,20,0,0,1-5.4-3.47,5.36,5.36,0,0,1,0-7.66,5.68,5.68,0,0,1,7.88,0,5.48,5.48,0,0,1,1.32,2l.51,1.37a1.44,1.44,0,0,0,.76.81,1.52,1.52,0,0,0,.59.12,1.34,1.34,0,0,0,.52-.1l5.37-2.09a1.44,1.44,0,0,0,.85-1.78l-.42-1.29A12.28,12.28,0,0,0,95.79,62a14.51,14.51,0,0,0-20.29,0,14,14,0,0,0,0,20,25.56,25.56,0,0,0,10.09,5.83,22.15,22.15,0,0,1,7.28,4.65,9.84,9.84,0,0,1,0,14.09,10.3,10.3,0,0,1-14.41,0,9.33,9.33,0,0,1-2.91-5.84L75.35,99a1.44,1.44,0,0,0-1.43-1.29,1.37,1.37,0,0,0-.49.09l-5.71,2a1.44,1.44,0,0,0-.94,1.57l.18,1.17a17.91,17.91,0,0,0,5.32,10.23,19,19,0,0,0,26.74,0,18.53,18.53,0,0,0,0-26.47A29.85,29.85,0,0,0,87.11,79.32Z"/><rect class="cls-1" x="107.59" y="58.53" width="8.81" height="59.16" rx="1.44"/><rect class="cls-1" x="123.47" y="63.54" width="8.81" height="38.53" rx="1.44"/><path class="cls-2" d="M127.88,117.69A5.84,5.84,0,0,0,132,116a5.81,5.81,0,0,0,0-8.37,6,6,0,0,0-8.3,0,5.82,5.82,0,0,0,0,8.37A5.87,5.87,0,0,0,127.88,117.69Z"/><path class="cls-1" d="M150.71,87.15a11.94,11.94,0,0,1,9-2.88c.49,0,1,.12,1.43.21l1,.18a1.48,1.48,0,0,0,1.17-.31,1.3,1.3,0,0,0,.32-.38l3.24-5.49a1.45,1.45,0,0,0,.08-1.3,1.39,1.39,0,0,0-1-.83l-1.9-.46a23.05,23.05,0,0,0-3.39-.54,21.67,21.67,0,0,0-23.42,19.31,21,21,0,0,0,19.12,23.17,21.66,21.66,0,0,0,23.41-19.32,22.87,22.87,0,0,0,.09-3.5l-.11-1.94a1.46,1.46,0,0,0-.65-1.12,1.42,1.42,0,0,0-1.28-.15l-6,2.18a1.64,1.64,0,0,0-.43.24,1.44,1.44,0,0,0-.52,1.09v1c0,.43,0,.88-.08,1.33a12.62,12.62,0,0,1-13.62,11.24,12.11,12.11,0,0,1-11-13.35A12,12,0,0,1,150.71,87.15Z"/><path class="cls-1" d="M210.41,115.53,197.09,92.34,206,81.51a1.44,1.44,0,0,0-1.11-2.35h-7.65a1.43,1.43,0,0,0-1.11.52l-4.57,5.56V66.65a1.44,1.44,0,0,0-1.44-1.44h-5.93a1.44,1.44,0,0,0-1.44,1.44v49.6a1.44,1.44,0,0,0,1.44,1.44h5.93a1.44,1.44,0,0,0,1.44-1.44v-16L200.78,117a1.42,1.42,0,0,0,1.25.74h7.13a1.44,1.44,0,0,0,1.25-2.16Z"/><circle class="cls-2" cx="218.4" cy="111.82" r="5.12"/><circle class="cls-2" cx="158.51" cy="96.59" r="8.64"/></svg>