<?xml version="1.0" standalone="no"?>
<!DOCTYPE svg PUBLIC "-//W3C//DTD SVG 20010904//EN"
 "http://www.w3.org/TR/2001/REC-SVG-20010904/DTD/svg10.dtd">
<svg version="1.0" xmlns="http://www.w3.org/2000/svg"
 width="1600.000000pt" height="1200.000000pt" viewBox="0 0 1600.000000 1200.000000"
 preserveAspectRatio="xMidYMid meet">

<g transform="translate(0.000000,1200.000000) scale(0.100000,-0.100000)"
fill="#000000" stroke="none">
<path d="M8425 10420 c-81 -21 -245 -85 -343 -134 -50 -24 -100 -38 -197 -55
-71 -12 -133 -25 -136 -29 -4 -4 -10 -17 -14 -29 -6 -22 -4 -23 49 -23 30 0
57 -4 60 -9 3 -5 -28 -30 -70 -55 -44 -25 -85 -58 -95 -76 -35 -57 -17 -177
28 -195 8 -2 75 -14 150 -25 75 -11 137 -21 139 -23 1 -1 11 -21 22 -44 22
-42 58 -76 95 -90 12 -4 -119 -10 -292 -13 l-313 -5 47 -90 c153 -294 424
-509 790 -626 189 -61 351 -89 570 -96 157 -5 195 -3 300 16 601 108 1031 321
1224 609 41 60 91 161 91 182 0 6 -122 10 -327 10 -324 0 -328 0 -298 19 17
10 43 32 57 50 25 29 31 31 95 31 68 1 181 17 262 39 40 12 43 14 36 39 -4 15
-7 41 -7 58 0 27 -4 33 -29 38 -25 5 -35 17 -59 68 -38 81 -38 94 3 102 l32 7
-26 14 c-86 47 -515 115 -723 115 l-99 0 -171 93 -170 92 44 5 45 5 -35 13
c-66 23 -185 31 -425 31 -198 -1 -252 -4 -310 -19z m325 -54 c0 -23 -3 -71 -7
-106 l-6 -63 -151 8 c-83 3 -152 8 -154 10 -2 2 0 39 3 84 7 79 8 80 39 90 49
15 74 18 179 20 l97 1 0 -44z m334 -17 c56 -22 117 -48 136 -59 31 -17 32 -19
12 -20 -56 -1 -83 -39 -51 -71 l20 -20 -168 6 c-92 4 -171 10 -174 14 -6 5
-39 172 -39 195 0 5 35 6 82 2 60 -5 108 -17 182 -47z m-658 -31 c-3 -29 -6
-65 -6 -80 0 -26 -3 -28 -44 -28 -62 0 -136 11 -136 21 0 30 140 136 184 139
5 0 6 -24 2 -52z m928 -109 c14 -11 26 -23 26 -27 0 -4 -24 -5 -52 -3 -29 2
-47 6 -40 8 6 3 12 13 12 24 0 25 21 24 54 -2z m796 -165 c41 -17 80 -59 80
-88 0 -26 -14 -18 -34 19 -12 21 -35 42 -61 55 -52 25 -70 26 -30 1 38 -23 80
-69 72 -77 -4 -4 -25 12 -47 35 -22 23 -54 44 -70 48 -16 3 -27 9 -24 14 8 14
70 10 114 -7z m-1899 -119 c63 -33 88 -124 52 -186 -25 -41 -92 -72 -138 -63
-45 8 -100 60 -108 102 -22 109 96 197 194 147z m1613 1 c41 -17 74 -58 82
-102 12 -67 -60 -154 -128 -154 -143 0 -191 192 -63 251 48 22 66 23 109 5z
m-654 -201 l425 -5 25 -29 c14 -16 41 -39 60 -50 l35 -21 -760 0 -760 0 42 21
c22 11 53 38 68 59 l27 39 207 -4 c113 -3 397 -7 631 -10z"/>
<path d="M8166 9837 c-26 -19 -18 -61 12 -65 46 -7 72 47 33 68 -25 13 -24 13
-45 -3z"/>
<path d="M9782 9828 c-17 -17 -15 -32 7 -52 16 -14 23 -15 41 -6 31 17 24 64
-10 68 -14 2 -31 -3 -38 -10z"/>
<path d="M10289 10021 c-26 -6 -26 -8 -15 -39 6 -19 14 -34 19 -33 4 1 21 1
39 1 39 0 26 17 -17 23 l-30 4 33 2 c45 2 40 21 -5 23 -37 1 -37 1 -5 5 17 2
32 8 32 14 0 10 -11 10 -51 0z"/>
<path d="M10300 9930 c0 -11 48 -25 56 -17 4 3 3 10 -1 16 -8 14 -55 14 -55 1z"/>
<path d="M5675 8918 c-44 -16 -102 -38 -130 -48 -27 -11 -120 -44 -205 -74
-85 -30 -193 -69 -240 -86 -116 -43 -251 -91 -272 -97 -10 -3 -18 -6 -18 -7 0
-2 7 -24 16 -50 13 -37 20 -46 33 -41 9 4 72 27 141 51 69 25 143 52 165 61
22 8 51 19 65 23 14 5 63 22 110 40 47 17 105 38 130 47 25 8 105 37 178 64
l133 50 102 -37 c56 -20 149 -53 207 -74 58 -20 132 -47 165 -59 33 -12 85
-31 115 -41 30 -10 107 -37 170 -60 129 -47 181 -63 184 -58 2 2 10 22 19 44
l16 42 -27 10 c-15 6 -67 25 -117 42 -49 17 -112 40 -140 50 -27 10 -97 35
-155 55 -58 20 -168 59 -245 87 -328 116 -285 109 -400 66z"/>
<path d="M5724 8725 c-26 -18 -48 -69 -40 -91 6 -15 10 -14 32 7 14 13 39 41
56 62 l30 37 -29 0 c-16 0 -38 -7 -49 -15z"/>
<path d="M5830 8595 c-13 -14 -21 -27 -18 -30 2 -3 15 6 28 20 13 14 21 27 18
30 -2 3 -15 -6 -28 -20z"/>
<path d="M11754 8605 c-39 -7 -100 -21 -134 -31 l-63 -17 -58 -91 -59 -91 0
68 c0 66 -1 68 -22 61 -39 -11 -44 -21 -58 -110 -8 -47 -18 -88 -24 -90 -6 -2
-74 -17 -151 -33 l-140 -29 -175 13 c-96 8 -203 16 -238 18 l-63 5 3 -72 3
-71 79 -5 80 -5 -42 -27 c-35 -24 -52 -28 -108 -28 l-66 0 7 -49 c7 -49 6 -50
-38 -91 -39 -35 -180 -222 -228 -300 -15 -24 -46 -109 -87 -236 l-20 -61 62
37 c35 21 116 65 182 98 l120 60 13 79 c15 83 16 83 41 -15 9 -36 13 -41 29
-33 14 8 25 -1 62 -52 24 -34 150 -170 280 -302 l237 -239 13 48 c14 46 17 49
84 78 99 44 298 119 302 114 7 -6 31 -103 53 -206 39 -187 80 -484 80 -583 l0
-58 73 3 c65 3 72 5 70 23 -27 224 -26 303 3 479 30 176 123 438 161 450 10 3
34 8 53 11 32 5 37 3 60 -32 40 -61 160 -182 225 -228 92 -65 201 -116 311
-144 62 -16 164 -29 169 -21 9 15 -26 125 -61 190 -41 78 -132 188 -203 245
-38 30 -53 52 -66 90 -44 131 -144 250 -255 302 -120 56 -313 87 -623 99
l-179 6 6 23 c3 13 9 31 12 40 6 14 -1 16 -57 11 -75 -7 -73 -6 50 29 123 34
184 65 251 129 30 29 76 65 103 80 l47 28 -41 40 c-43 42 -69 91 -69 133 0 20
5 25 25 25 54 0 156 -52 274 -141 l43 -32 -16 31 c-35 68 -140 152 -251 203
-76 34 -85 45 -45 54 55 12 263 -26 404 -75 30 -10 56 -17 58 -15 7 7 -10 167
-19 175 -4 4 -30 16 -58 26 -66 23 -309 29 -411 9z m156 -1314 c0 -5 -20 -51
-45 -102 -24 -52 -59 -140 -77 -195 l-32 -102 -44 152 c-24 83 -46 160 -49
172 -4 19 5 24 99 49 56 15 108 28 113 30 20 7 35 5 35 -4z"/>
<path d="M8200 8443 c-35 -29 -112 -140 -134 -194 -38 -91 -25 -203 31 -270
50 -59 131 -76 191 -39 57 35 63 22 13 -28 -74 -74 -104 -125 -96 -162 l7 -30
36 28 c21 16 63 44 94 61 51 29 57 30 61 14 13 -45 18 -104 11 -139 l-7 -39
-10 35 c-18 71 -60 90 -96 44 -28 -36 -29 -135 -2 -181 19 -31 19 -31 0 -49
-40 -36 -17 -88 51 -113 68 -25 72 -43 21 -90 -60 -56 -53 -90 22 -106 l28 -6
-21 -26 c-11 -14 -20 -29 -20 -34 0 -15 65 -69 83 -69 26 0 21 16 -15 43 l-31
25 21 27 c12 15 22 31 22 36 0 17 -33 39 -60 39 -42 0 -43 13 -4 51 70 67 66
96 -21 134 -29 13 -56 29 -60 35 -4 6 14 33 40 61 58 62 86 125 92 203 6 67
-15 163 -48 228 -14 28 -16 38 -7 39 7 1 81 3 163 3 110 1 167 6 214 19 61 17
64 17 76 0 30 -39 178 -337 199 -401 l23 -67 11 40 c22 80 42 247 42 352 0
100 -2 112 -31 168 -32 63 -84 125 -106 125 -7 0 -19 12 -27 28 -33 62 -112
112 -179 112 -19 0 -79 -14 -133 -31 -175 -55 -238 -39 -292 73 -15 31 -30 57
-35 57 -4 1 -20 -19 -35 -43 -53 -86 -53 -86 -48 -34 3 27 8 59 12 73 8 32 -6
32 -46 -2z"/>
<path d="M5040 8298 l1 -123 100 105 c142 150 141 140 9 140 l-110 0 0 -122z"/>
<path d="M5600 8298 l1 -123 60 65 c33 36 83 91 110 123 l51 57 -111 0 -111 0
0 -122z"/>
<path d="M6147 8413 c-4 -3 -7 -61 -7 -127 l1 -121 85 90 c46 50 98 107 115
128 l31 37 -109 0 c-61 0 -113 -3 -116 -7z"/>
<path d="M5339 8308 c-40 -46 -84 -96 -98 -111 l-26 -29 26 4 c31 4 179 168
179 198 0 11 -2 20 -4 20 -2 0 -37 -37 -77 -82z"/>
<path d="M5880 8293 c-114 -130 -116 -133 -91 -133 24 0 191 186 191 213 0 9
-3 17 -7 17 -5 0 -46 -44 -93 -97z"/>
<path d="M6450 8314 c-143 -166 -136 -156 -108 -152 46 6 225 231 181 227 -5
0 -37 -34 -73 -75z"/>
<path d="M5377 8215 l-38 -45 41 0 40 0 0 45 c0 25 -1 45 -3 45 -1 0 -20 -20
-40 -45z"/>
<path d="M5936 8216 c-20 -23 -36 -46 -36 -50 0 -3 18 -6 40 -6 l40 0 0 50 c0
28 -2 50 -4 50 -3 0 -21 -20 -40 -44z"/>
<path d="M6486 8216 c-20 -23 -36 -46 -36 -50 0 -3 18 -6 40 -6 l40 0 0 50 c0
28 -2 50 -4 50 -3 0 -21 -20 -40 -44z"/>
<path d="M4260 8099 c-47 -61 -99 -130 -117 -152 -18 -23 -30 -43 -28 -46 6
-5 2884 -5 2890 1 4 3 -25 41 -93 123 -10 11 -45 55 -80 98 l-63 77 -60 0 -59
0 0 -85 0 -86 -257 5 c-142 3 -531 5 -865 6 l-608 1 0 68 c0 111 28 101 -294
101 l-282 0 -84 -111z"/>
<path d="M8566 7888 c-20 -95 -20 -94 26 -116 24 -11 59 -23 78 -27 32 -7 33
-8 13 -16 -32 -12 -47 -47 -47 -114 0 -75 24 -118 63 -113 60 7 81 143 32 208
l-21 30 60 -7 60 -6 0 39 0 40 -69 17 c-38 10 -95 34 -126 53 -32 19 -59 34
-61 34 -2 0 -6 -10 -8 -22z"/>
<path d="M3968 7860 c-47 -14 -88 -44 -116 -84 -24 -35 -27 -49 -27 -117 0
-71 2 -80 31 -115 51 -64 77 -78 152 -82 61 -3 71 -1 114 27 111 71 127 222
34 316 -55 54 -124 75 -188 55z"/>
<path d="M7004 7860 c-130 -14 -174 -54 -174 -160 l0 -68 -57 -4 c-41 -3 -61
0 -69 9 -9 11 -13 11 -16 2 -6 -18 -38 -3 -38 17 0 10 12 32 26 51 14 19 24
43 22 56 -3 19 -9 13 -43 -35 l-40 -57 -62 -1 c-50 0 -67 -4 -84 -21 -42 -42
-26 -11 42 79 l70 92 -95 0 -95 0 -3 -96 -3 -96 -73 -1 c-50 0 -76 4 -82 12
-5 9 -10 10 -14 2 -10 -16 -33 -13 -40 5 -4 10 6 32 24 57 16 23 30 52 30 65
0 20 -8 14 -45 -37 -39 -52 -50 -61 -77 -62 -43 -1 -83 -6 -109 -14 -16 -5 -6
13 40 73 33 45 61 83 61 86 0 3 -40 6 -90 6 l-89 0 -3 -97 -3 -98 -34 0 c-19
0 -36 -6 -38 -12 -3 -7 0 -13 6 -13 16 0 15 -177 -1 -182 -7 -3 -8 -10 -4 -17
7 -11 89 -12 433 -6 l425 8 -11 -22 c-7 -11 -16 -21 -21 -21 -6 0 -10 -9 -10
-20 0 -19 7 -20 89 -20 80 0 90 2 96 20 3 10 2 27 -3 37 -5 10 -7 23 -5 30 2
6 -1 14 -6 18 -7 4 -10 41 -9 93 1 48 3 70 5 50 5 -46 52 -94 105 -108 62 -17
213 -4 258 21 63 35 94 89 98 168 5 85 -24 143 -89 183 -52 32 -100 38 -195
28z m-1079 -292 c4 -18 5 -58 3 -88 -2 -43 -7 -56 -20 -58 -16 -3 -18 6 -18
87 0 73 3 91 15 91 8 0 17 -14 20 -32z m65 -58 c0 -73 -3 -90 -15 -90 -12 0
-15 17 -15 90 0 73 3 90 15 90 12 0 15 -17 15 -90z m70 -1 c0 -81 -2 -90 -17
-87 -15 3 -19 16 -21 77 -3 83 1 101 23 101 12 0 15 -16 15 -91z m65 64 c10
-42 -5 -153 -21 -153 -11 0 -14 20 -14 90 0 70 3 90 14 90 8 0 17 -12 21 -27z
m65 -64 c0 -81 -2 -90 -17 -87 -13 2 -19 15 -21 48 -5 67 7 130 24 130 11 0
14 -18 14 -91z m68 4 c-3 -74 -6 -88 -20 -91 -16 -3 -18 5 -18 65 0 82 8 113
27 113 11 0 13 -17 11 -87z m62 2 c0 -69 -3 -85 -15 -85 -12 0 -15 16 -15 85
0 69 3 85 15 85 12 0 15 -16 15 -85z m70 0 c0 -78 -2 -85 -20 -85 -18 0 -20 7
-20 85 0 78 2 85 20 85 18 0 20 -7 20 -85z m64 63 c3 -13 6 -51 6 -85 0 -56
-2 -63 -20 -63 -18 0 -20 7 -20 85 0 66 3 85 14 85 7 0 16 -10 20 -22z m68 -5
c6 -57 -4 -143 -17 -143 -13 0 -26 103 -17 147 6 32 30 29 34 -4z m66 -61 c3
-77 2 -82 -18 -82 -18 0 -20 6 -20 65 0 39 4 65 11 65 6 0 8 9 4 21 -5 15 -3
20 6 17 10 -3 15 -28 17 -86z m59 68 c-3 -11 -1 -20 5 -20 6 0 8 -20 4 -52 -3
-29 -6 -59 -6 -65 0 -7 -7 -13 -15 -13 -12 0 -15 15 -15 78 0 43 3 82 7 85 13
14 25 6 20 -13z m73 -65 c0 -66 -3 -85 -14 -85 -10 0 -15 18 -18 63 -3 34 -2
64 2 67 3 3 9 13 13 23 13 34 17 16 17 -68z m70 0 c0 -78 -2 -85 -20 -85 -18
0 -20 7 -20 85 0 78 2 85 20 85 18 0 20 -7 20 -85z"/>
<path d="M5528 7843 l-108 -4 0 -209 0 -210 110 0 110 0 0 215 c0 118 -1 214
-2 213 -2 -1 -51 -4 -110 -5z m82 -96 c0 -49 -5 -59 -62 -139 -35 -48 -69 -87
-75 -87 -10 -1 -13 23 -13 87 0 77 3 91 20 107 12 10 30 34 41 52 17 27 27 33
55 33 l34 0 0 -53z m-10 -207 c-7 -13 -21 -20 -40 -20 -17 0 -30 3 -30 6 0 3
17 30 38 60 l37 53 3 -39 c2 -22 -2 -48 -8 -60z"/>
<path d="M4437 7833 c-4 -3 -7 -118 -7 -255 l0 -248 365 0 365 0 0 255 0 255
-358 0 c-197 0 -362 -3 -365 -7z"/>
<path d="M4233 7516 c-12 -7 -34 -24 -49 -39 -15 -15 -30 -27 -34 -27 -8 0
-50 -91 -50 -108 0 -9 37 -12 129 -12 124 0 130 1 136 21 6 19 -11 69 -55 159
-9 19 -48 22 -77 6z"/>
<path d="M5324 7516 c-15 -40 21 -80 54 -60 37 24 21 74 -25 74 -13 0 -26 -6
-29 -14z"/>
<path d="M5672 7518 c-30 -30 0 -75 42 -64 29 7 40 31 26 57 -12 21 -50 25
-68 7z"/>
<path d="M3520 7264 c0 -18 107 -216 152 -282 66 -97 229 -267 328 -342 360
-274 829 -410 1410 -410 421 0 796 67 1155 205 339 130 584 303 756 531 67 89
168 264 169 292 0 15 -136 17 -145 2 -9 -14 -3581 -14 -3590 0 -6 10 -235 15
-235 4z"/>
<path d="M8305 6683 c-146 -22 -166 -26 -170 -33 -2 -4 24 -47 60 -95 l64 -88
-20 -49 c-10 -26 -31 -72 -46 -101 l-26 -52 -13 30 c-7 17 -13 38 -14 48 0 9
-4 17 -10 17 -5 0 -48 -31 -96 -69 -138 -111 -196 -147 -264 -161 l-62 -13 6
-31 c8 -40 42 -282 51 -362 8 -75 11 -74 -140 -81 -127 -7 -203 9 -255 53 -17
15 -33 25 -35 23 -9 -10 -26 -180 -36 -376 -24 -469 21 -835 110 -883 21 -11
246 -12 295 -1 34 7 43 32 66 180 7 45 14 80 16 78 3 -3 34 -241 34 -264 0
-10 120 -13 605 -13 l605 0 0 -100 0 -100 -140 0 -140 0 1 -42 c0 -24 4 -79
10 -123 18 -148 27 -239 45 -444 l19 -203 51 6 c66 8 170 40 211 65 18 11 49
45 69 76 31 46 37 65 42 126 5 71 -2 107 -39 203 -10 27 -19 71 -19 98 0 61
17 226 31 296 l10 52 44 0 c42 0 46 3 98 68 314 390 487 889 488 1403 0 98 -3
195 -7 214 -16 88 -323 332 -599 476 -135 70 -155 77 -155 52 0 -44 -104 -145
-200 -194 -57 -29 -76 -34 -162 -37 -86 -4 -102 -2 -151 21 -116 53 -160 189
-99 306 l22 41 -38 -2 c-21 -2 -74 -8 -117 -15z m-318 -1627 c1 -1 -9 -24 -23
-51 -14 -28 -39 -95 -55 -150 -17 -55 -32 -105 -34 -112 -3 -9 -15 -8 -45 4
-41 16 -42 17 -36 57 3 23 8 93 12 156 l6 116 87 -9 c47 -5 87 -10 88 -11z"/>
<path d="M10100 6249 c0 -20 127 -277 187 -377 120 -202 317 -432 490 -574
281 -229 630 -386 1023 -459 137 -26 472 -37 591 -20 490 71 907 367 1119 796
87 176 152 393 175 588 l7 57 -646 0 c-355 0 -646 -2 -646 -4 0 -3 28 -22 62
-42 104 -63 258 -231 258 -281 0 -11 -162 -13 -875 -13 -481 0 -875 3 -875 6
0 15 65 96 122 150 77 74 149 127 206 149 23 10 42 21 42 26 0 5 -264 9 -620
9 -452 0 -620 -3 -620 -11z m710 -159 l55 -19 -46 -1 c-33 0 -57 7 -83 25
l-36 25 -33 -20 c-31 -20 -107 -27 -141 -14 -28 11 -17 20 18 16 50 -6 102 15
127 50 l22 30 31 -37 c21 -24 49 -43 86 -55z m2385 -124 c32 -42 75 -59 112
-45 35 13 40 4 9 -16 -32 -21 -85 -15 -122 14 l-25 20 -36 -25 c-27 -18 -49
-24 -89 -24 -29 0 -56 5 -59 10 -4 6 10 10 35 10 53 0 96 22 115 60 20 38 28
38 60 -4z m-2145 -276 c22 0 40 -4 40 -10 0 -5 -22 -10 -49 -10 -35 0 -58 7
-85 25 l-37 25 -30 -22 c-31 -23 -79 -29 -131 -15 -44 12 -32 22 19 18 56 -4
105 18 122 56 l12 25 49 -46 c42 -39 55 -46 90 -46z m1381 25 c40 -37 55 -45
86 -45 21 0 49 7 61 16 32 22 42 7 12 -17 -53 -41 -120 -36 -173 11 l-32 29
-32 -31 c-24 -23 -44 -32 -80 -35 -52 -5 -133 12 -133 28 0 5 11 6 28 2 74
-21 150 1 183 53 11 19 23 34 26 34 3 0 28 -20 54 -45z m-801 -170 c25 -53 68
-80 111 -71 31 6 40 -8 13 -18 -46 -18 -108 5 -142 51 -19 26 -20 26 -37 9
-10 -10 -29 -22 -42 -27 -32 -12 -104 -11 -123 1 -11 7 -4 10 26 10 64 0 103
18 130 62 14 21 29 36 33 33 5 -3 19 -25 31 -50z m735 -331 c47 -61 95 -65
125 -10 17 33 34 33 48 2 17 -37 54 -58 84 -47 13 5 30 16 37 25 7 9 21 16 30
16 11 -1 3 -12 -23 -35 -47 -42 -83 -45 -123 -11 l-28 24 -22 -24 c-34 -37
-83 -33 -131 11 l-38 34 -25 -25 c-29 -29 -79 -39 -143 -30 -64 10 -58 26 7
19 64 -6 110 13 135 58 22 38 34 37 67 -7z"/>
<path d="M6415 5693 c3 -21 50 -292 104 -603 l97 -565 52 -5 c29 -3 56 -3 61
0 6 4 -5 74 -63 390 -44 239 -146 805 -146 812 0 4 -25 8 -56 8 l-56 0 7 -37z"/>
<path d="M11127 4622 c-64 -71 -77 -376 -20 -486 l15 -29 -29 8 c-103 26 -335
21 -407 -9 -53 -22 -48 -50 12 -73 38 -15 76 -18 202 -18 105 0 167 4 193 13
21 8 40 12 43 10 2 -2 1 -97 -3 -210 l-6 -206 -45 -5 c-27 -3 -62 1 -89 10
-96 33 -243 2 -305 -64 l-23 -25 42 -39 c37 -34 48 -39 90 -39 54 0 130 32
205 85 26 19 66 38 88 41 l40 7 0 -66 0 -65 -98 5 c-115 7 -160 -4 -197 -48
-31 -38 -32 -59 -1 -88 56 -53 143 -33 246 56 l51 45 -6 -294 c-3 -161 -8
-348 -11 -415 l-6 -123 -195 0 -195 0 6 98 c4 53 9 104 12 113 6 21 -12 25
-138 34 -57 4 -98 4 -98 -2 0 -5 -7 -65 -16 -133 -17 -136 -22 -185 -23 -242
l-1 -38 -63 0 c-35 0 -132 -3 -215 -7 l-152 -6 0 -695 0 -695 578 6 c317 4
682 7 810 7 l232 0 0 690 0 690 -60 0 -60 0 0 90 0 90 -190 0 -190 0 1 233 c1
127 5 327 8 442 l6 210 75 -100 c42 -55 88 -126 104 -157 33 -70 89 -120 181
-163 115 -55 115 -55 115 2 -1 62 -27 120 -75 161 -43 38 -65 48 -158 69 l-68
15 -60 80 c-34 44 -59 81 -56 84 11 11 147 -65 197 -110 61 -56 142 -103 244
-141 l66 -25 0 28 c0 15 -11 50 -24 78 -38 82 -108 121 -233 130 -64 5 -96 14
-174 50 -53 24 -101 44 -107 44 -30 0 -18 22 22 42 l46 22 77 -19 c91 -21 190
-23 253 -6 48 14 147 101 136 120 -4 5 -31 15 -62 22 -90 20 -183 0 -419 -90
-44 -17 -81 -31 -82 -31 -5 0 -3 86 3 122 5 30 18 46 67 85 l61 48 116 0 c105
0 120 2 171 27 40 20 61 38 77 67 35 62 30 78 -28 90 -88 19 -185 -14 -277
-94 -26 -23 -78 -65 -115 -93 l-68 -51 0 148 c0 134 2 150 20 166 37 34 54
118 54 265 -1 115 -4 144 -23 193 -29 74 -62 95 -94 59z m-427 -2617 l0 -165
-30 0 c-19 0 -28 4 -26 13 3 6 10 81 17 165 9 112 16 152 26 152 10 0 13 -35
13 -165z m-274 113 c-3 -24 -8 -79 -11 -123 -11 -148 -18 -159 -71 -104 -27
29 -29 35 -29 114 0 75 2 86 25 110 25 27 53 43 78 44 10 1 12 -10 8 -41z"/>
<path d="M7842 4223 c3 -15 -10 -19 -84 -28 -48 -6 -90 -13 -93 -16 -2 -3 13
-153 35 -333 22 -181 40 -332 40 -337 0 -5 29 -9 64 -9 l63 0 7 -117 c3 -65
11 -238 16 -385 31 -832 43 -1093 60 -1228 6 -47 13 -121 15 -164 7 -112 32
-297 42 -307 4 -4 88 -5 186 -2 l177 6 0 41 c0 53 -17 85 -60 114 -37 24 -44
40 -55 121 -6 46 -5 50 16 53 18 2 27 15 40 53 34 103 88 385 128 675 6 41 16
113 23 160 17 117 17 556 0 635 -25 109 -54 183 -93 234 -27 34 -24 40 19 30
46 -11 212 -12 212 -1 0 4 -18 133 -40 287 -23 154 -43 305 -45 335 -3 30 -10
88 -16 128 l-12 72 -324 0 c-301 0 -324 -1 -321 -17z"/>
<path d="M7365 4143 c-86 -12 -423 -77 -510 -97 -209 -51 -276 -94 -310 -203
-16 -50 -17 -81 -11 -267 3 -116 11 -285 16 -376 28 -463 58 -961 80 -1344 6
-110 14 -182 21 -187 8 -5 6 -23 -5 -63 -13 -43 -22 -57 -39 -60 -12 -2 -59
-12 -105 -21 -46 -9 -86 -14 -90 -10 -4 4 -8 300 -10 659 l-2 653 -107 6 c-58
4 -249 7 -425 7 l-318 0 0 230 0 230 -120 0 c-66 0 -120 -3 -120 -7 0 -24 -88
-581 -136 -868 -8 -44 -21 -132 -29 -195 -8 -63 -28 -198 -44 -300 -62 -387
-71 -449 -71 -471 l0 -22 570 7 c314 4 570 4 570 -1 -1 -4 -7 -19 -15 -33 -8
-14 -14 -43 -15 -64 l0 -39 403 7 c221 4 406 11 410 15 8 8 1 78 -25 249 -9
60 -9 85 -1 90 18 12 122 336 180 562 42 167 56 238 60 320 10 190 -31 499
-106 792 l-37 146 247 4 c136 1 251 6 255 10 6 7 -78 578 -92 631 -5 17 -12
18 -69 10z m-1285 -1578 c16 -8 34 -24 40 -35 11 -20 7 -20 -280 -20 l-290 0
0 35 0 35 250 0 c204 0 256 -3 280 -15z"/>
<path d="M3176 3419 c-82 -27 -151 -51 -154 -53 -3 -4 101 -338 125 -403 3 -8
-3 -13 -16 -13 l-22 0 2 -805 2 -805 378 0 378 0 5 33 c3 17 10 86 16 152 6
66 12 143 15 170 46 477 68 693 75 755 6 41 14 146 20 233 6 87 17 206 24 265
8 59 17 131 20 160 l5 52 -82 0 c-64 0 -89 -4 -115 -20 -48 -29 -72 -75 -72
-137 l0 -53 -139 0 -139 0 -82 253 c-45 138 -85 255 -89 258 -3 3 -73 -16
-155 -42z m600 -816 c-3 -42 -6 -118 -6 -170 l0 -93 -34 0 -34 0 -47 143 c-26
78 -51 154 -55 170 l-9 27 96 0 96 0 -7 -77z"/>
<path d="M5046 3393 c-2 -3 -2 -128 1 -279 l6 -274 -101 0 -102 0 0 55 c0 54
0 55 -30 55 -35 0 -34 -9 -19 166 17 185 8 196 -169 215 -178 18 -185 11 -207
-212 -8 -85 -15 -157 -15 -161 0 -5 -11 -8 -24 -8 -22 0 -24 4 -28 65 -4 69
-24 102 -80 131 l-26 13 -11 -62 c-6 -34 -18 -120 -26 -192 -9 -71 -20 -152
-25 -180 -25 -152 -52 -330 -60 -405 -11 -94 -15 -122 -60 -430 -34 -232 -43
-294 -59 -410 -6 -41 -13 -90 -17 -107 l-6 -33 437 0 437 0 -7 50 c-6 46 -5
50 14 50 22 0 26 11 34 90 8 76 125 1054 172 1435 59 484 57 430 13 431 -20 1
-39 0 -42 -3z m-667 -755 c0 -24 -4 -61 -8 -83 -8 -34 -9 -28 -10 43 -1 49 3
82 9 82 6 0 10 -19 9 -42z"/>
<path d="M7790 1418 c-73 -27 -100 -53 -100 -95 l0 -33 96 0 96 0 -6 48 c-10
74 -17 102 -24 101 -4 0 -32 -9 -62 -21z"/>
</g>
</svg>
